<svg xmlns="http://www.w3.org/2000/svg" viewBox="0 0 800 320"><defs><linearGradient id="a" x2="1" y2="1"><stop stop-color="#fff1cc"/><stop offset="1" stop-color="#fffaf0"/></linearGradient></defs><rect width="800" height="320" fill="url(#a)"/><path d="M0 230c140-35 248 27 390 0 170-33 290-8 410 28v62H0z" fill="#d99a21" opacity=".72"/><path d="M111 225h190v-85H111zM150 140V78h112v62zM506 225h170v-92H506zM546 133V86h90v47z" fill="#fff"/><path d="M375 76c-37 43-45 87-13 130 35 47 95 59 145 28" fill="none" stroke="#2f6fed" stroke-width="9" stroke-dasharray="14 12" stroke-linecap="round"/><circle cx="375" cy="76" r="12" fill="#2f6fed"/><path d="M490 215l22 18-28 10" fill="#2f6fed"/></svg>
