<svg xmlns="http://www.w3.org/2000/svg" viewBox="0 0 800 320"><defs><linearGradient id="a" x2="1" y2="1"><stop stop-color="#ffe6e2"/><stop offset="1" stop-color="#f7f9fc"/></linearGradient></defs><rect width="800" height="320" fill="url(#a)"/><path d="M0 218c130-45 245 58 395 3 139-51 253-10 405 30v69H0z" fill="#d9544d" opacity=".72"/><path d="M116 233h215l-31-54H151z" fill="#fff"/><path d="M214 179V88M214 99l74 38-74 24" fill="none" stroke="#2f6fed" stroke-width="9" stroke-linejoin="round"/><path d="M505 231h190v-72H505zM535 159v-40h130v40zM557 119V87h86v32z" fill="#fff"/><path d="M389 98c62 6 91 46 105 97" fill="none" stroke="#d99a21" stroke-width="9" stroke-dasharray="13 11" stroke-linecap="round"/><path d="M484 177l12 22-25-2" fill="#d99a21"/></svg>
